# xmcd
#
# Track frame offsets:
#	182
#	16837
#	29580
#	43197
#	58857
#	73140
#	88205
#	103385
#	115995
#	130932
#	146445
#	159355
#
# Disc length: 2380 seconds
#
# Revision: 3
# Processed by: cddbd v1.5.2PL0 Copyright (c) Steve Scherf et al.
# Submitted via: audiograbber 1.83.01
#
DISCID=b0094a0c
DTITLE=Byrd, Tracy - Big love
DYEAR=1996
DGENRE=Country
TTITLE0=Big love
TTITLE1=Cowgirl
TTITLE2=Good ol' fashioned love
TTITLE3=Don't take her she's all I got
TTITLE4=If I stay
TTITLE5=Don't love make a diamond shine
TTITLE6=Tucson too soon
TTITLE7=I don't believe that's how you feel
TTITLE8=Driving me out of your mind
TTITLE9=I love you, that's all
TTITLE10=Lifestyles of the not so rich and famous
TTITLE11=The keeper of the stars
EXTD=
EXTT0=
EXTT1=
EXTT2=
EXTT3=
EXTT4=
EXTT5=
EXTT6=
EXTT7=
EXTT8=
EXTT9=
EXTT10=
EXTT11=
PLAYORDER=
